<?xml version="1.0" encoding="UTF-8" standalone="no"?>
<!-- Created with Inkscape (http://www.inkscape.org/) -->

<svg
   xmlns:dc="http://purl.org/dc/elements/1.1/"
   xmlns:cc="http://creativecommons.org/ns#"
   xmlns:rdf="http://www.w3.org/1999/02/22-rdf-syntax-ns#"
   xmlns:svg="http://www.w3.org/2000/svg"
   xmlns="http://www.w3.org/2000/svg"
   xmlns:sodipodi="http://sodipodi.sourceforge.net/DTD/sodipodi-0.dtd"
   xmlns:inkscape="http://www.inkscape.org/namespaces/inkscape"
   width="204.79985mm"
   height="204.79985mm"
   viewBox="0 0 204.79985 204.79985"
   version="1.1"
   id="svg8"
   inkscape:version="0.92.4 (5da689c313, 2019-01-14)"
   sodipodi:docname="icon_wash.svg">
  <defs
     id="defs2">
    <clipPath
       clipPathUnits="userSpaceOnUse"
       id="clipPath1871">
      <circle
         style="opacity:0.70099996;vector-effect:none;fill:#20c6f2;fill-opacity:0.98402554;stroke:#000000;stroke-width:0.329;stroke-linecap:butt;stroke-linejoin:miter;stroke-miterlimit:4;stroke-dasharray:none;stroke-dashoffset:0;stroke-opacity:1"
         id="circle1873"
         cx="67.839951"
         cy="50.728184"
         r="26.87998" />
    </clipPath>
    <clipPath
       clipPathUnits="userSpaceOnUse"
       id="clipPath1875">
      <circle
         style="opacity:0.70099996;vector-effect:none;fill:#20c6f2;fill-opacity:0.98402554;stroke:#000000;stroke-width:0.329;stroke-linecap:butt;stroke-linejoin:miter;stroke-miterlimit:4;stroke-dasharray:none;stroke-dashoffset:0;stroke-opacity:1"
         id="circle1877"
         cx="67.839951"
         cy="50.728184"
         r="26.87998" />
    </clipPath>
    <clipPath
       clipPathUnits="userSpaceOnUse"
       id="clipPath1879">
      <circle
         style="opacity:0.70099996;vector-effect:none;fill:#20c6f2;fill-opacity:0.98402554;stroke:#000000;stroke-width:0.329;stroke-linecap:butt;stroke-linejoin:miter;stroke-miterlimit:4;stroke-dasharray:none;stroke-dashoffset:0;stroke-opacity:1"
         id="circle1881"
         cx="67.839951"
         cy="50.728184"
         r="26.87998" />
    </clipPath>
    <clipPath
       clipPathUnits="userSpaceOnUse"
       id="clipPath1883">
      <circle
         style="opacity:0.70099996;vector-effect:none;fill:#20c6f2;fill-opacity:0.98402554;stroke:#000000;stroke-width:0.329;stroke-linecap:butt;stroke-linejoin:miter;stroke-miterlimit:4;stroke-dasharray:none;stroke-dashoffset:0;stroke-opacity:1"
         id="circle1885"
         cx="67.839951"
         cy="50.728184"
         r="26.87998" />
    </clipPath>
  </defs>
  <sodipodi:namedview
     id="base"
     pagecolor="#ffffff"
     bordercolor="#666666"
     borderopacity="1.0"
     inkscape:pageopacity="0.0"
     inkscape:pageshadow="2"
     inkscape:zoom="0.1767767"
     inkscape:cx="380.28125"
     inkscape:cy="349.49609"
     inkscape:document-units="mm"
     inkscape:current-layer="layer1"
     showgrid="false"
     fit-margin-top="0"
     fit-margin-left="0"
     fit-margin-right="0"
     fit-margin-bottom="0"
     inkscape:window-width="1366"
     inkscape:window-height="741"
     inkscape:window-x="0"
     inkscape:window-y="0"
     inkscape:window-maximized="1"
     showguides="true"
     inkscape:guide-bbox="true"
     inkscape:snap-global="false">
    <sodipodi:guide
       position="106.26636,-1.4967093"
       orientation="1,0"
       id="guide1912"
       inkscape:locked="false" />
  </sodipodi:namedview>
  <metadata
     id="metadata5">
    <rdf:RDF>
      <cc:Work
         rdf:about="">
        <dc:format>image/svg+xml</dc:format>
        <dc:type
           rdf:resource="http://purl.org/dc/dcmitype/StillImage" />
        <dc:title></dc:title>
      </cc:Work>
    </rdf:RDF>
  </metadata>
  <g
     inkscape:label="Camada 1"
     inkscape:groupmode="layer"
     id="layer1"
     transform="translate(-6.7864724,-52.163193)">
    <g
       id="g1910"
       transform="rotate(2.2629507,109.1863,154.56316)">
      <path
         transform="matrix(3.8095238,0,0,3.8095238,-149.25151,-38.687106)"
         clip-path="url(#clipPath1883)"
         inkscape:connector-curvature="0"
         id="path1863"
         d="M 49.415446,50.335008 C 44.290834,37.355261 40.09797,26.016077 40.09797,25.136943 c 0,-0.87916 6.972377,-1.598426 15.49417,-1.598426 13.704394,0 15.369966,0.443178 14.418937,3.836598 -0.591372,2.110158 -3.20523,13.455528 -5.808569,25.212001 -2.603343,11.75646 -4.898999,21.36911 -5.101466,21.361452 -0.20245,-0.0079 -4.560985,-10.633735 -9.685596,-23.61356 z"
         style="fill:#f6b31d;stroke-width:2.19234729" />
      <path
         transform="matrix(3.8095238,0,0,3.8095238,-149.25151,-38.687106)"
         clip-path="url(#clipPath1879)"
         inkscape:connector-curvature="0"
         id="path1778"
         d="M 70.187206,49.529865 C 65.359871,37.278196 61.081001,26.411895 60.678555,25.38258 c -0.402446,-1.029273 6.380632,-1.871458 15.073529,-1.871458 15.230635,0 15.768055,0.179695 14.781164,4.939206 -6.552568,31.601872 -9.363656,43.355321 -10.369356,43.355321 -0.659904,0 -5.149432,-10.024117 -9.976686,-22.275784 z"
         style="fill:#f6b31d;stroke-width:2.19520497" />
      <path
         transform="matrix(3.8095238,0,0,3.8095238,-149.25151,-38.687106)"
         clip-path="url(#clipPath1875)"
         style="fill:#20c6f2;fill-opacity:0.98402554;stroke-width:2.19234729"
         d="m 78.040747,65.170441 c 5.124614,12.97975 9.317478,24.31893 9.317478,25.19806 0,0.87916 -6.972378,1.59842 -15.494168,1.59842 -13.7044,0 -15.36997,-0.44317 -14.41894,-3.83659 0.59137,-2.11016 3.20523,-13.45552 5.80857,-25.212 2.60334,-11.75646 4.899,-21.369113 5.10147,-21.361453 0.20245,0.008 4.56098,10.633743 9.68559,23.613563 z"
         id="path1867"
         inkscape:connector-curvature="0" />
      <path
         transform="matrix(3.8095238,0,0,3.8095238,-149.25151,-38.687106)"
         clip-path="url(#clipPath1871)"
         sodipodi:nodetypes="ssscsscscscsscscsscsscsscsccscc"
         style="fill:#f12140;stroke-width:0.55217391"
         d="M 46.42353,100.25912 C 24.892112,77.232001 37.993671,45.986051 34.02793,39.283726 32.114746,36.050336 31.408528,32.11988 26.262252,36.16651 c -1.062935,0.83581 -0.232757,-0.11426 1.84484,-2.11125 7.116829,-6.84075 14.236935,-11.171968 17.304792,-7.887818 2.92369,3.12982 6.03751,15.669979 9.851209,27.237319 1.220259,3.70117 1.637432,5.732899 1.991774,4.869129 0.246522,-0.60095 2.604891,-8.54698 5.24082,-17.65785 2.635929,-9.11086 4.945157,-16.74251 5.131619,-16.95921 0.186461,-0.21669 3.183978,7.56631 6.66115,17.29556 3.477177,9.72925 6.470848,17.78146 6.652608,17.89379 0.181759,0.11234 1.044401,-3.016542 1.796831,-6.50807 4.469374,-20.739398 10.305919,-35.745302 12.157999,-38.34024 2.06454,-2.892614 12.058776,-0.90445 22.052736,1.89888 0.92147,0.25847 -1.01604,0.42364 -4.96956,0.42364 -7.64844,0 -5.44432,7.943755 -8.50393,10.562675 -6.472986,5.54064 -2.44424,13.427245 -4.853272,39.173155 -0.41774,4.46448 -7.685274,23.931254 -10.504886,21.674892 L 80.740426,81.82811 79.844573,79.44381 C 79.351857,78.13245 76.722803,70.66357 74.002231,62.8463 71.281653,55.02902 68.929956,48.63071 68.776227,48.62782 c -0.153726,-0.003 -3.244649,11.23839 -6.868717,24.98062 -3.624069,13.74222 -7.116533,26.93684 -7.761031,29.32137 l -1.171814,4.33552 z M 83.179759,88.60916 c 0.0265,-0.64325 0.157339,-0.77409 0.333599,-0.33361 0.15951,0.3986 0.1399,0.87485 -0.0436,1.05834 -0.18349,0.18348 -0.313992,-0.14265 -0.290017,-0.72473 z"
         id="path1756"
         inkscape:connector-curvature="0" />
    </g>
  </g>
</svg>
